<svg id="icon" xmlns="http://www.w3.org/2000/svg" viewBox="0 0 12.9 10.17"><defs><style>.cls-1{fill:#28b9fc;}.cls-2{isolation:isolate;}.cls-3{fill:#fff;}</style></defs><title>Icon</title><rect class="cls-1" width="12.9" height="10.17" rx="0.9" ry="0.9"/><g class="cls-2"><path class="cls-3" d="M3.8,10.09a1.18,1.18,0,0,1-1-.48,1.88,1.88,0,0,1-.3-1.12V3.56a1.86,1.86,0,0,1,.3-1.1A1.18,1.18,0,0,1,3.8,2a1.16,1.16,0,0,1,1,.47,1.88,1.88,0,0,1,.3,1.12V8.49a1.9,1.9,0,0,1-.29,1.12A1.16,1.16,0,0,1,3.8,10.09Zm0-.4a.79.79,0,0,0,.73-.37,1.61,1.61,0,0,0,.18-.83V3.57a1.63,1.63,0,0,0-.17-.83.81.81,0,0,0-.74-.37.78.78,0,0,0-.73.32,1.67,1.67,0,0,0-.2.88V8.49a1.57,1.57,0,0,0,.18.83A.8.8,0,0,0,3.8,9.69Zm0-.41a.42.42,0,0,1-.43-.22,1.36,1.36,0,0,1-.1-.58V3.56a1,1,0,0,1,.14-.62.47.47,0,0,1,.39-.17A.44.44,0,0,1,4.24,3a1.34,1.34,0,0,1,.08.54V8.49a1.06,1.06,0,0,1-.13.63A.47.47,0,0,1,3.8,9.29Z" transform="translate(0 -0.83)"/></g><g class="cls-2"><path class="cls-3" d="M6,9.88V7h.35V9.88Z" transform="translate(0 -0.83)"/><path class="cls-3" d="M6.88,9.88V7h.35V9.88Z" transform="translate(0 -0.83)"/><path class="cls-3" d="M9.14,9.88v-.3a.76.76,0,0,1-.66.35.83.83,0,0,1-.34-.07.56.56,0,0,1-.24-.18.66.66,0,0,1-.11-.26,1.76,1.76,0,0,1,0-.33V7.81h.35V9a2,2,0,0,0,0,.37.36.36,0,0,0,.14.22.44.44,0,0,0,.27.08.58.58,0,0,0,.3-.08A.46.46,0,0,0,9,9.32a1.11,1.11,0,0,0,.06-.41V7.81h.35V9.88Z" transform="translate(0 -0.83)"/><path class="cls-3" d="M9.87,9.26l.35-.05a.48.48,0,0,0,.16.32.57.57,0,0,0,.37.11.55.55,0,0,0,.36-.1.29.29,0,0,0,.12-.23.22.22,0,0,0-.1-.19A1.52,1.52,0,0,0,10.76,9a3.28,3.28,0,0,1-.54-.17.51.51,0,0,1-.3-.48A.53.53,0,0,1,10,8.1a.56.56,0,0,1,.17-.2.74.74,0,0,1,.22-.1,1,1,0,0,1,.3,0,1.2,1.2,0,0,1,.43.07.58.58,0,0,1,.27.19.75.75,0,0,1,.12.32l-.34,0A.38.38,0,0,0,11,8.14.5.5,0,0,0,10.71,8a.57.57,0,0,0-.35.08.23.23,0,0,0-.1.19.19.19,0,0,0,0,.12.3.3,0,0,0,.13.09l.31.09a4.45,4.45,0,0,1,.52.16A.53.53,0,0,1,11.5,9a.52.52,0,0,1,.08.3.59.59,0,0,1-.1.33.66.66,0,0,1-.3.24,1.08,1.08,0,0,1-.44.08,1,1,0,0,1-.62-.17A.78.78,0,0,1,9.87,9.26Z" transform="translate(0 -0.83)"/></g></svg>