<?xml version="1.0" encoding="utf-8"?>
<!-- Generator: Adobe Illustrator 21.0.0, SVG Export Plug-In . SVG Version: 6.00 Build 0)  -->
<svg version="1.1" id="iconLong" xmlns="http://www.w3.org/2000/svg" xmlns:xlink="http://www.w3.org/1999/xlink" x="0px" y="0px"
	 viewBox="0 0 53.4 12.9" style="enable-background:new 0 0 53.4 12.9;" xml:space="preserve">
<style type="text/css">
	.st0{enable-background:new    ;}
	.st1{fill:#28B9FC;}
	.st2{fill:#FFFFFF;}
</style>
<title>IconLong</title>
<g class="st0">
	<path class="st1" d="M17.6,10.2h-1V3.1h1V10.2z"/>
	<path class="st1" d="M20.3,8.9c0,0.1,0,0.2,0.1,0.3c0.1,0.1,0.1,0.1,0.2,0.1H21v0.9h-0.6c-0.4,0-0.7-0.1-0.9-0.4s-0.3-0.6-0.3-1
		V3.1h1V8.9z"/>
</g>
<g class="st0">
	<path class="st1" d="M23.1,8.9c0,0.1,0,0.2,0.1,0.3c0.1,0.1,0.1,0.1,0.2,0.1h0.5v0.9h-0.6c-0.4,0-0.7-0.1-0.9-0.4s-0.3-0.6-0.3-1
		V3.1h1V8.9z"/>
</g>
<g class="st0">
	<path class="st1" d="M26,8.2c0,0.4,0.1,0.6,0.3,0.8c0.2,0.2,0.4,0.3,0.8,0.3c0.3,0,0.6-0.1,0.8-0.3c0.2-0.2,0.3-0.4,0.3-0.7
		l0.1,1.1C28,9.6,27.9,9.8,27.6,10s-0.5,0.3-0.9,0.3c-0.6,0-1-0.2-1.3-0.5C25.2,9.3,25,8.8,25,8.2V5.1h1V8.2z M28.1,5.1h1v5.1h-1
		V5.1z"/>
</g>
<g class="st0">
	<path class="st1" d="M31.9,10.2c0,0-0.1,0-0.4-0.1c-0.3-0.1-0.5-0.1-0.7-0.3c-0.2-0.1-0.4-0.3-0.6-0.4l0.6-0.7
		c0.3,0.2,0.5,0.4,0.8,0.5c0.3,0.1,0.5,0.2,0.8,0.2c0.4,0,0.7-0.1,0.9-0.2c0.2-0.1,0.3-0.3,0.3-0.5c0-0.2-0.1-0.3-0.2-0.4
		S33.1,8.1,33,8.1c-0.2,0-0.4-0.1-0.7-0.1c0,0-0.1,0-0.1,0c0,0-0.1,0-0.1,0c0,0,0,0,0,0c0,0,0,0,0,0c-0.3,0-0.6-0.1-0.8-0.1
		c-0.2-0.1-0.4-0.2-0.6-0.4S30.4,7,30.4,6.6s0.1-0.7,0.2-0.9s0.4-0.4,0.7-0.5C31.6,5.1,32,5,32.4,5c0.3,0,0.5,0,0.8,0.1
		s0.5,0.1,0.7,0.2c0.2,0.1,0.4,0.2,0.6,0.4l-0.6,0.7c-0.3-0.2-0.5-0.3-0.8-0.4c-0.2-0.1-0.5-0.1-0.7-0.1c-0.3,0-0.6,0.1-0.8,0.2
		c-0.2,0.1-0.3,0.3-0.3,0.5c0,0.1,0,0.2,0.1,0.3C31.6,7,31.7,7,31.9,7.1s0.4,0,0.6,0.1c0,0,0,0,0.1,0c0,0,0,0,0.1,0c0,0,0,0,0,0
		s0,0,0,0c0.4,0,0.7,0.1,0.9,0.1s0.5,0.2,0.6,0.4c0.2,0.2,0.3,0.5,0.3,0.9c0,0.4-0.1,0.7-0.2,0.9c-0.2,0.2-0.4,0.4-0.7,0.5
		c-0.3,0.1-0.7,0.2-1.2,0.2C32.1,10.2,31.9,10.2,31.9,10.2z"/>
</g>
<g class="st0">
	<path class="st1" d="M38.5,3.1h0.7l1.5,5.6l1.3-5.6h1l-1.7,7.1h-1l-1.3-5l-1.4,5h-1l-1.7-7.1h1L37,8.6L38.5,3.1z"/>
</g>
<g class="st0">
	<path class="st1" d="M44.8,10.2c0,0-0.2-0.1-0.5-0.3s-0.6-0.4-0.8-0.8c-0.2-0.3-0.3-0.8-0.3-1.2V7.4c0-0.5,0.1-0.9,0.3-1.3
		c0.2-0.4,0.4-0.6,0.7-0.8C44.5,5.1,44.9,5,45.4,5c0.4,0,0.8,0.1,1.1,0.3c0.3,0.2,0.5,0.5,0.7,0.9c0.2,0.4,0.2,0.9,0.2,1.4V8H44V7.2
		h2.5c0-0.4-0.1-0.7-0.3-1c-0.2-0.2-0.4-0.3-0.7-0.3c-0.4,0-0.7,0.1-0.9,0.4c-0.2,0.2-0.3,0.6-0.3,1V8c0,0.4,0.1,0.7,0.3,1
		c0.2,0.2,0.5,0.3,0.9,0.3c0.2,0,0.4,0,0.6-0.1c0.2-0.1,0.4-0.2,0.5-0.3l0.7,0.7C47,9.7,46.7,9.9,46.4,10c-0.3,0.1-0.6,0.2-0.9,0.2
		C45,10.2,44.8,10.2,44.8,10.2z"/>
	<path class="st1" d="M48.7,3.1h1v7.1h-1V3.1z M50.2,10c-0.2-0.2-0.4-0.4-0.5-0.6l0.1-1.1c0,0.2,0,0.4,0.1,0.6s0.2,0.3,0.3,0.4
		c0.1,0.1,0.3,0.1,0.5,0.1c0.3,0,0.6-0.1,0.8-0.3c0.2-0.2,0.3-0.5,0.3-0.8V7.1c0-0.4-0.1-0.7-0.3-0.9c-0.2-0.2-0.4-0.3-0.8-0.3
		c-0.2,0-0.4,0-0.5,0.1c-0.1,0.1-0.3,0.2-0.3,0.3c-0.1,0.2-0.1,0.3-0.1,0.5l-0.1-1c0.2-0.3,0.4-0.5,0.6-0.7C50.5,5.1,50.8,5,51.1,5
		c0.4,0,0.7,0.1,0.9,0.2c0.3,0.2,0.4,0.4,0.6,0.7s0.2,0.7,0.2,1.1v1.1c0,0.4-0.1,0.8-0.2,1.1S52.2,9.8,52,10
		c-0.3,0.2-0.6,0.2-0.9,0.2C50.7,10.2,50.4,10.2,50.2,10z"/>
</g>
<path class="st1" d="M0.9,0.9h11.4c0.5,0,0.9,0.4,0.9,0.9v8.6c0,0.5-0.4,0.9-0.9,0.9H0.9c-0.5,0-0.9-0.4-0.9-0.9V1.8
	C0,1.3,0.4,0.9,0.9,0.9z"/>
<g class="st0">
	<path class="st2" d="M3.9,10.4c-0.5,0-0.8-0.2-1-0.5C2.7,9.6,2.6,9.2,2.6,8.7V3.7c0-0.5,0.1-0.8,0.3-1.1C3.1,2.2,3.5,2,3.9,2
		c0.5,0,0.8,0.2,1,0.5c0.2,0.3,0.3,0.7,0.3,1.1v5.1c0,0.5-0.1,0.9-0.3,1.1C4.7,10.2,4.4,10.4,3.9,10.4z M3.9,10
		c0.3,0,0.6-0.1,0.8-0.4c0.1-0.2,0.2-0.5,0.2-0.9V3.7c0-0.4-0.1-0.7-0.2-0.9C4.5,2.6,4.3,2.4,3.9,2.4c-0.4,0-0.6,0.1-0.7,0.3
		S3,3.3,3,3.7v5.1C3,9.1,3,9.4,3.2,9.6C3.3,9.8,3.6,10,3.9,10z M3.9,9.6c-0.2,0-0.4-0.1-0.4-0.2C3.4,9.2,3.4,9,3.4,8.7V3.7
		c0-0.3,0-0.5,0.1-0.6s0.2-0.2,0.4-0.2c0.2,0,0.4,0.1,0.4,0.3c0.1,0.1,0.1,0.3,0.1,0.6v5.1c0,0.3,0,0.5-0.1,0.6
		C4.2,9.5,4.1,9.6,3.9,9.6z"/>
</g>
<g class="st0">
	<path class="st2" d="M6.2,10.2V7.2h0.4v2.9H6.2z"/>
	<path class="st2" d="M7.1,10.2V7.2h0.4v2.9H7.1z"/>
	<path class="st2" d="M9.4,10.2V9.9c-0.2,0.2-0.4,0.4-0.7,0.4c-0.1,0-0.2,0-0.4-0.1c-0.1,0-0.2-0.1-0.2-0.2C8.1,9.9,8,9.8,8,9.7
		c0-0.1,0-0.2,0-0.3V8h0.4v1.2c0,0.2,0,0.3,0,0.4c0,0.1,0.1,0.2,0.1,0.2c0.1,0.1,0.2,0.1,0.3,0.1c0.1,0,0.2,0,0.3-0.1
		s0.2-0.1,0.2-0.2s0.1-0.2,0.1-0.4V8h0.4v2.1H9.4z"/>
	<path class="st2" d="M10.2,9.5l0.4-0.1c0,0.1,0.1,0.3,0.2,0.3s0.2,0.1,0.4,0.1c0.2,0,0.3,0,0.4-0.1c0.1-0.1,0.1-0.1,0.1-0.2
		c0-0.1,0-0.1-0.1-0.2c0,0-0.2-0.1-0.4-0.1c-0.3-0.1-0.4-0.1-0.6-0.2S10.4,9,10.3,8.9c-0.1-0.1-0.1-0.2-0.1-0.3c0-0.1,0-0.2,0.1-0.3
		s0.1-0.1,0.2-0.2c0.1,0,0.1-0.1,0.2-0.1c0.1,0,0.2,0,0.3,0c0.2,0,0.3,0,0.4,0.1c0.1,0,0.2,0.1,0.3,0.2c0.1,0.1,0.1,0.2,0.1,0.3
		l-0.4,0c0-0.1-0.1-0.2-0.1-0.3c-0.1-0.1-0.2-0.1-0.3-0.1c-0.2,0-0.3,0-0.4,0.1c-0.1,0.1-0.1,0.1-0.1,0.2c0,0,0,0.1,0,0.1
		c0,0,0.1,0.1,0.1,0.1c0,0,0.1,0,0.3,0.1C11.3,8.9,11.5,9,11.6,9c0.1,0,0.2,0.1,0.2,0.2s0.1,0.2,0.1,0.3c0,0.1,0,0.2-0.1,0.3
		c-0.1,0.1-0.2,0.2-0.3,0.2s-0.3,0.1-0.5,0.1c-0.3,0-0.5-0.1-0.6-0.2S10.2,9.8,10.2,9.5z"/>
</g>
</svg>
