<?xml version="1.0" encoding="utf-8"?>
<!-- Generator: Adobe Illustrator 21.0.0, SVG Export Plug-In . SVG Version: 6.00 Build 0)  -->
<svg version="1.1" id="圖層_1" xmlns="http://www.w3.org/2000/svg" xmlns:xlink="http://www.w3.org/1999/xlink" x="0px" y="0px"
	 viewBox="0 0 16 16" style="enable-background:new 0 0 16 16;" xml:space="preserve">
<style type="text/css">
	.st0{fill:#F0F7F7;}
	.st1{fill:#FFFFFF;}
	.st2{fill:#A0AFAE;}
</style>
<title>default-headshot</title>
<rect x="0" class="st0" width="16" height="16"/>
<rect x="0" y="2.8" class="st1" width="16" height="5.4"/>
<path class="st2" d="M12,9.6c0,1.8-1.8,3.3-4,3.3s-4-1.5-4-3.3H12z"/>
<path class="st2" d="M11.7,9.6c-0.3,3.9-7.1,3.9-7.3,0L4,10h8c0.2,0,0.3-0.2,0.3-0.4c0-0.2-0.2-0.3-0.3-0.3H4
	c-0.2,0-0.4,0.2-0.4,0.4c0.3,4.9,8.5,4.9,8.8,0C12.5,9.1,11.7,9.1,11.7,9.6z"/>
<path class="st2" d="M1.9,5.7c0,0.1,0,0.1-0.1,0.2c0,0,0,0,0,0H0.2C0.1,5.9,0,5.8,0,5.7c0-0.1,0.1-0.1,0.1-0.2c0,0,0,0,0,0h1.6
	C1.8,5.5,1.9,5.6,1.9,5.7C1.9,5.7,1.9,5.7,1.9,5.7z"/>
<path class="st2" d="M3.6,6.6c0,0.1,0,0.1-0.1,0.1c0,0-0.1,0-0.1-0.1l-0.8-1v1c0,0.1,0,0.1-0.1,0.1c0,0-0.1,0-0.1-0.1c0,0,0,0,0,0
	V5.4c0-0.1,0-0.1,0.1-0.1c0,0,0.1,0,0.1,0l0.8,1v-1c0,0,0-0.1,0.1-0.1c0,0,0,0,0,0c0.1,0,0.1,0,0.1,0.1L3.6,6.6z"/>
<path class="st2" d="M5.8,5.7c0,0.3-0.1,0.6-0.2,0.8C5.4,6.7,5.1,6.8,4.8,6.8c-0.3,0-0.6-0.1-0.8-0.3C3.9,6.3,3.8,6,3.8,5.7
	c0-0.3,0.1-0.6,0.3-0.8c0.2-0.2,0.5-0.3,0.8-0.3c0.3,0,0.6,0.1,0.8,0.3C5.8,5.2,5.9,5.4,5.8,5.7z M5.5,5.7c0-0.2-0.1-0.4-0.2-0.6
	C5.2,5,5,4.9,4.8,4.9C4.6,4.9,4.4,5,4.3,5.2C4.2,5.3,4.1,5.5,4.1,5.7c0,0.2,0,0.4,0.2,0.6c0.1,0.1,0.3,0.2,0.5,0.2
	c0.2,0,0.4-0.1,0.5-0.2C5.5,6.1,5.5,5.9,5.5,5.7L5.5,5.7z"/>
<path class="st2" d="M6.7,5.8H6V5.6h0.7L6.7,5.8z"/>
<path class="st2" d="M7,6.6c0,0.1,0,0.1-0.1,0.1c0,0-0.1,0-0.1-0.1c0,0,0,0,0,0V5.4c0,0,0-0.1,0.1-0.1c0,0,0,0,0,0
	C7,5.3,7,5.3,7,5.4V6.6z"/>
<path class="st2" d="M8.6,6.6c0,0.1,0,0.1-0.1,0.1c-0.1,0-0.1,0-0.1-0.1V5.8L8,6.5c0,0.1-0.1,0.1-0.2,0.1c0,0,0,0-0.1-0.1L7.4,5.7
	v0.9c0,0.1,0,0.1-0.1,0.1c0,0-0.1,0-0.1-0.1c0,0,0,0,0,0V5.4c0-0.1,0-0.1,0.1-0.1c0,0,0.1,0,0.1,0l0.5,0.9l0.5-0.9c0,0,0.1,0,0.1,0
	c0,0,0.1,0,0.1,0c0,0,0,0.1,0,0.1L8.6,6.6z"/>
<path class="st2" d="M10.2,6.6C10.2,6.6,10.2,6.7,10.2,6.6C10.1,6.7,10.1,6.7,10.2,6.6C10,6.7,10,6.7,10,6.6L9.8,6.4H9L8.9,6.7
	c0,0-0.1,0.1-0.1,0.1c0,0-0.1,0-0.1,0c0,0,0-0.1,0-0.1c0,0,0,0,0-0.1l0.6-1.3c0,0,0.1,0,0.1,0c0,0,0.1,0,0.1,0L10.2,6.6
	C10.2,6.5,10.2,6.6,10.2,6.6z M9.8,6.2L9.4,5.5L9.1,6.2L9.8,6.2z"/>
<path class="st2" d="M12.2,6.6c0,0.1-0.1,0.2-0.2,0.2s-0.2-0.1-0.1-0.2V6.5c-0.2,0.2-0.4,0.3-0.7,0.3c-0.3,0-0.5-0.1-0.7-0.3
	c-0.2-0.2-0.3-0.5-0.2-0.8c0-0.3,0.1-0.6,0.3-0.8c0.2-0.2,0.5-0.3,0.7-0.3c0.2,0,0.3,0,0.5,0.1c0.2,0.1,0.3,0.2,0.4,0.3
	c0,0,0,0.1,0,0.1c0,0,0,0.1,0,0.1c0,0-0.1,0-0.1,0c-0.1,0-0.1,0-0.2-0.1C11.9,5.1,11.8,5,11.6,5c-0.1,0-0.2-0.1-0.4-0.1
	c-0.2,0-0.4,0.1-0.5,0.3c-0.1,0.2-0.2,0.3-0.2,0.5c0,0.2,0,0.4,0.2,0.6c0.1,0.2,0.3,0.2,0.5,0.2c0.2,0,0.3-0.1,0.4-0.1
	c0.1-0.1,0.2-0.2,0.3-0.4h-0.4c-0.1,0-0.1,0-0.1-0.2c0-0.1,0-0.2,0.1-0.2H12c0.1,0,0.2,0.1,0.2,0.2L12.2,6.6z"/>
<path class="st2" d="M13.6,6.6c0,0.1,0,0.1-0.1,0.1h-1c-0.1,0-0.2-0.1-0.2-0.2v-1c0-0.1,0.1-0.2,0.2-0.2h1c0.1,0,0.1,0,0.1,0.1
	c0,0,0,0,0,0.1c0,0,0,0-0.1,0h-0.9h-0.1c0,0,0,0,0,0.1v0.3h0.8c0.1,0,0.1,0,0.1,0.1c0,0.1,0,0.1-0.1,0.1h-0.8v0.3c0,0,0,0.1,0.1,0.1
	h0.9C13.6,6.5,13.6,6.5,13.6,6.6z"/>
<path class="st2" d="M16,5.7c0,0.1,0,0.1-0.1,0.2c0,0,0,0,0,0h-1.6c-0.1,0-0.1-0.1-0.1-0.2c0-0.1,0.1-0.1,0.1-0.2c0,0,0,0,0,0h1.6
	C15.9,5.5,16,5.6,16,5.7C16,5.7,16,5.7,16,5.7z"/>
</svg>
